<svg version="1.1" id="Camada_1" xmlns="http://www.w3.org/2000/svg" x="0" y="0" viewBox="0 0 2000 400" style="enable-background:new 0 0 2000 400" xml:space="preserve"><style>.st0{fill:#f3ba2f}</style><path class="st0" d="M122.3 168.1 200 90.4l77.7 77.7 45.2-45.2L200 0 77.1 122.9l45.2 45.2zM0 200l45.2-45.2L90.4 200l-45.2 45.2L0 200zM122.3 231.9l77.7 77.7 77.7-77.7L323 277 200 400 77.1 277.1l-.1-.1 45.3-45.1zM309.6 200l45.2-45.2L400 200l-45.2 45.2-45.2-45.2z"/><path class="st0" d="M245.9 200 200 154.1 166.1 188l-3.9 3.9-8 8-.1.1.1.1 45.8 45.8 45.9-45.9z"/><path class="st0" d="M469.9 96.9h98.3c24.4 0 42.8 6.3 55.4 19 9.5 9.4 14.8 22.4 14.5 35.8v.6c.1 5.4-.7 10.8-2.2 16-1.4 4.5-3.4 8.7-6 12.6-2.4 3.7-5.4 7-8.7 9.9-3.3 2.8-6.9 5.3-10.7 7.3 11.1 3.9 21 10.4 29 19 7 8 10.6 19.1 10.6 33.2v.6c.2 8.8-1.7 17.5-5.6 25.5-3.8 7.3-9.3 13.5-16 18.2-7.6 5.1-16.2 8.8-25.1 10.9-10.6 2.5-21.6 3.7-32.5 3.6h-101V96.9zm88.5 85.8c8.5.4 17-1.4 24.5-5.3 6-3.5 9.5-10.2 9-17.1v-.6c.3-6.4-2.6-12.5-7.9-16.2-5.2-3.7-12.8-5.6-22.7-5.6h-46v44.8h43.1zm12.4 85.4c8.5.5 16.9-1.5 24.3-5.6 5.9-3.8 9.2-10.5 8.8-17.4v-.6c.2-6.6-2.8-12.9-8.2-16.8-5.4-4.2-14.2-6.3-26.3-6.3h-54v46.8l55.4-.1zM708.5 96.9h46.7V309h-46.7V96.9zM825.8 96.9h43l99.5 130.5V96.9h46.1V309h-39.7L871.9 174.2V309h-46.1V96.9zM1155.6 95.4h43l90.9 213.6h-48.7l-19.4-47.6h-89.7l-19.4 47.6h-47.6l90.9-213.6zm49.1 124.9-28.2-68.8-28.1 68.8h56.3zM1339.9 96.9h43l99.4 130.5V96.9h46.1V309h-39.7L1386 174.2V309h-46.1V96.9zM1696.3 312.8c-14.9.1-29.6-2.8-43.3-8.5-26.1-10.8-46.8-31.7-57.3-57.9-5.5-13.6-8.3-28.1-8.2-42.7v-.6c-.2-28.9 10.9-56.7 30.9-77.4 9.9-10.1 21.7-18.2 34.8-23.6 14.2-5.9 29.5-8.8 44.8-8.6 9.1-.1 18.2.7 27.1 2.4 7.6 1.4 15.1 3.7 22.3 6.7 6.5 2.7 12.7 6.2 18.5 10.3 5.6 4 10.9 8.5 15.8 13.3l-29.7 34.2c-7.6-7-16.1-12.9-25.3-17.6-9-4.3-18.9-6.5-28.9-6.3-16.8-.2-33 6.9-44.2 19.4-5.5 6.2-9.9 13.3-12.8 21.1-3 8.2-4.6 16.9-4.5 25.6v.6c0 8.7 1.5 17.4 4.5 25.6 2.9 7.8 7.2 15 12.6 21.2 11.2 12.7 27.3 19.9 44.2 19.7 10.6.3 21.2-2 30.7-6.7 9.1-5 17.5-11.1 25-18.2l29.7 30c-5.2 5.7-10.9 11-17 15.8-5.9 4.7-12.4 8.7-19.2 12-7.3 3.4-15 6-22.9 7.6-8.9 1.7-18.2 2.6-27.6 2.6zM1838.2 96.9h159.6v41.5h-113.7v43h100.1V223h-100v44.5h115.2V309h-161.1l-.1-212.1z" transform="translate(.55)"/></svg>